<?xml version="1.0" encoding="UTF-8"?>
<svg id="Calque_2" data-name="Calque 2" xmlns="http://www.w3.org/2000/svg" version="1.1" viewBox="0 0 135.7 134.3">
  <defs>
    <style>
      .cls-1 {
        fill: #fff;
        stroke-width: 0px;
      }
    </style>
  </defs>
  <g id="Calque_5" data-name="Calque 5">
    <path class="cls-1" d="M135.7,62.1c0,19.5-13.2,35.8-31.1,40.8,0,0-.2,0-.3,0-.4.1-.8.2-1.2.3-1.4.3-2.8.6-4.2.8-.4,0-.9.1-1.4.2-1,0-2,.2-3,.2-.4,0-.8,0-1.2,0-1.4,0-2.7.1-4,.3-9.6,1.6-17.3,9-19.3,18.5,0,.3-.1.6-.2.8l-1.2,6.4h0s-.7,3.8-.7,3.8v-9.7c0-9.6,5.4-17.9,13.3-22,0,0-.2,0-.2,0-4.8-1.5-9.2-3.8-13.1-6.7,0,0-.1,0-.2-.1v-7c6.8-6.8,10.9-16.2,10.9-26.6s-.2-4.8-.7-7.1c-.4-2.2-1-4.2-1.8-6.2l-4.8-17.1v-.2c0,0-1.4-4.6-1.4-4.6l-2.3-8.2V0h.4l2.3,8.2,4.5,15.9,1.3,4.5,4.8,17.1s0,0,0,0l2.8,9.9c.3,2.1.5,4.3.5,6.5,0,3.7-.5,7.2-1.3,10.6h0c-2,7.8-6.1,14.6-11.7,20,5.1,3.7,11.3,6.2,17.9,6.9.5,0,1,0,1.4.1.9,0,1.8,0,2.8,0s.7,0,1,0c.2,0,.5,0,.7,0,.4,0,.8,0,1.2,0,1.1,0,2.1-.2,3.1-.4,18-2.9,31.7-18.5,31.7-37.2s0-.4,0-.6c-17.9,1.1-32.6,14.3-36,31.6-.4,1.9-.6,3.8-.7,5.8-1.7-2.2-3.1-4.7-4.3-7.2.4-2.2,1.1-4.3,1.8-6.4,3.3-9,9.4-16.6,17.3-21.8,6.2-4.1,13.6-6.7,21.5-7.2,1,0,1.9,0,2.9,0s1.1,0,1.7,0c.2,1.7.4,3.4.4,5.2,0,.2,0,.5,0,.7h0Z"/>
    <path class="cls-1" d="M109.2,34.8v24.3l-4.5,3.4v-18.7c-8.8,7.2-14.4,18.1-14.4,30.4s.6,7.6,1.6,11.1c-.8,2.1-1.4,4.2-1.8,6.4-2.7-5.6-4.2-11.9-4.2-18.5,0-14.8,7.4-27.8,18.8-35.6,1.4-1,2.9-1.9,4.5-2.7Z"/>
    <path class="cls-1" d="M0,62.1c0,19.5,13.2,35.8,31.1,40.8,0,0,.2,0,.3,0,.4.1.8.2,1.2.3,1.4.3,2.8.6,4.2.8.5,0,.9.1,1.4.2,1,0,2,.2,3,.2.4,0,.8,0,1.2,0,1.4,0,2.7.1,4,.3,9.6,1.6,17.3,9,19.3,18.5,0,.3.1.6.2.8l1.2,6.4h0s.7,3.8.7,3.8v-9.7c0-9.6-5.4-17.9-13.3-22,0,0,.2,0,.2,0,4.8-1.5,9.2-3.8,13.1-6.7,0,0,.1,0,.2-.1v-7c-6.8-6.8-11-16.2-11-26.6s.2-4.8.7-7.1c.4-2.2,1-4.2,1.8-6.2l4.8-17.1v-.2c0,0,1.4-4.6,1.4-4.6l2.3-8.2V0h-.4l-2.3,8.2-4.5,15.9-1.3,4.5-4.8,17.1s0,0,0,0l-2.8,9.9c-.3,2.1-.5,4.3-.5,6.5,0,3.7.5,7.2,1.3,10.6h0c2,7.8,6.1,14.6,11.7,20-5.1,3.7-11.3,6.2-17.9,6.9-.5,0-1,0-1.5.1-.9,0-1.8,0-2.8,0s-.7,0-1,0c-.2,0-.5,0-.7,0-.4,0-.8,0-1.2,0-1,0-2.1-.2-3.1-.4-18-2.9-31.7-18.5-31.7-37.2s0-.4,0-.6c18,1.1,32.6,14.3,36,31.6.4,1.9.6,3.8.7,5.8,1.7-2.2,3.1-4.7,4.3-7.2-.5-2.2-1.1-4.3-1.8-6.4-3.3-9-9.4-16.6-17.3-21.8-6.2-4.1-13.6-6.7-21.5-7.2-1,0-1.9,0-2.9,0s-1.1,0-1.7,0c-.2,1.7-.4,3.4-.4,5.2C0,61.6,0,61.9,0,62.1h0Z"/>
    <path class="cls-1" d="M26.5,34.8v24.3l4.5,3.4v-18.7c8.8,7.2,14.4,18.1,14.4,30.4s-.5,7.6-1.6,11.1c.8,2.1,1.4,4.2,1.8,6.4,2.7-5.6,4.2-11.9,4.2-18.5,0-14.8-7.5-27.8-18.8-35.6-1.4-1-3-1.9-4.5-2.7Z"/>
  </g>
</svg>